<svg width="310" height="53" viewBox="0 0 310 53" fill="none" xmlns="http://www.w3.org/2000/svg">
<path d="M66.7051 32.408H16.9531C12.5371 32.408 8.76907 30.848 5.64907 27.728C2.52907 24.608 0.969066 20.84 0.969066 16.424C0.969066 12.056 2.52907 8.312 5.64907 5.192C8.76907 2.072 12.5371 0.511998 16.9531 0.511998H75.6331V12.392H14.0011V20.6H64.4731C68.9371 20.6 72.7291 22.136 75.8491 25.208C78.9691 28.28 80.5291 32.048 80.5291 36.512C80.5291 40.928 78.9451 44.696 75.7771 47.816C72.6571 50.936 68.8891 52.496 64.4731 52.496H3.99307V40.544H66.7051V32.408ZM159.248 52.496H103.232C98.8156 52.496 95.0236 50.912 91.8556 47.744C88.6876 44.576 87.1036 40.808 87.1036 36.44V16.568C87.1036 12.152 88.6876 8.384 91.8556 5.264C95.0236 2.096 98.8156 0.511998 103.232 0.511998H159.248V12.392H99.1996V20.6H159.248V32.408H99.1996V40.544H159.248V52.496ZM165.756 52.496V13.4C165.756 9.8 167.004 6.752 169.5 4.256C172.044 1.76 175.092 0.511998 178.644 0.511998C182.1 0.511998 185.076 1.712 187.572 4.112L225.3 41.336V0.511998H237.252V39.392C237.252 42.992 235.956 46.088 233.364 48.68C230.82 51.224 227.748 52.496 224.148 52.496C220.644 52.496 217.596 51.248 215.004 48.752L177.708 12.392V52.496H165.756ZM274.778 11.96L267.074 26.576H282.554L274.778 11.96ZM285.722 7.136L309.122 52.496H295.658L288.098 38.168H261.53L253.898 52.496H240.506L263.834 7.136C264.89 5.072 266.402 3.464 268.37 2.312C270.338 1.112 272.474 0.511998 274.778 0.511998C277.082 0.511998 279.218 1.112 281.186 2.312C283.154 3.464 284.666 5.072 285.722 7.136Z" fill="#BE2720"/>
</svg>
