<?xml version="1.0" encoding="utf-8"?>
<!-- Generator: Adobe Illustrator 24.0.1, SVG Export Plug-In . SVG Version: 6.00 Build 0)  -->
<svg version="1.1" id="Layer_1" xmlns="http://www.w3.org/2000/svg" xmlns:xlink="http://www.w3.org/1999/xlink" x="0px" y="0px"
	 viewBox="0 0 264 280" style="enable-background:new 0 0 264 280;" xml:space="preserve">
<style type="text/css">
	.st0{fill:#2C3E50;}
	.st1{fill:#FEFEFE;}
	.st2{fill:#D1864A;}
	.st3{fill:#E5E5E5;}
</style>
<circle class="st0" cx="2933" cy="238" r="570.8"/>
<desc>Created with getavataaars.com</desc>
<g id="Mask">
</g>
<path class="st0" d="M2933,808.8c0.1,0,0.3,0,0.4,0c-2.6,0-5.3,0-7.9,0C2928,808.8,2930.5,808.8,2933,808.8z"/>
<path class="st1" d="M3405.3,558.6c-60.8-66.1-149.6-113-251.5-128c-1.1,4.5-0.3,9.1-1.1,13.7c-3.4,19.1-14.1,35.3-30.4,49.6
	c-28.1,24.7-64.4,38.6-104.4,47.7c-31.8,7.2-64.3,10.2-97.3,9c-51.9-1.9-101.1-11.4-144.9-34.2c-25.6-13.4-45.8-30.4-57.3-53
	c-5.7-11.2-7.1-22.8-6.9-34.6c-103,12-193.7,56.6-257,120.8c100.6,154.1,273.6,256.7,470.8,259.2c2.6,0,5.3,0,7.9,0
	C3129.6,808.7,3302.7,709.6,3405.3,558.6z"/>
<path class="st2" d="M2781.1,479c17.3,12.1,37.2,20.9,59.2,26.9c24.4,6.8,49.5,10.5,75.4,11.8c43.3,2.1,84.9-3,124.4-16.7
	c23-8,43.7-18.7,58.8-34.9c9.8-10.5,16.1-22,16.9-35.1c0.1-1.6,0.4-3.1,1.3-4.5c-11.2-0.8-22.5-1.2-33.9-1.2
	c-55.8,0-109,9.5-157.5,26.6c-48.4-17.1-101.6-26.6-157.5-26.6c-6.7,0-13.4,0.1-20,0.4c0.2,0.7,0.3,1.5,0.4,2.6
	C2750.6,448.7,2761.7,465.5,2781.1,479z"/>
<path class="st3" d="M3115.8,431.1c-0.8,13.1-7.1,24.6-16.9,35.1c-15.1,16.1-35.8,26.9-58.8,34.9c-39.6,13.7-81.2,18.8-124.4,16.7
	c-25.9-1.3-51-5-75.4-11.8c-22-6.1-41.9-14.9-59.2-26.9c-19.4-13.5-30.5-30.3-32.4-50.6c-0.1-1.1-0.2-1.9-0.4-2.6
	c-12.3,0.5-24.5,1.5-36.5,2.9c-0.2,11.8,1.3,23.4,6.9,34.6c11.5,22.6,31.6,39.6,57.3,53c43.7,22.9,92.9,32.4,144.9,34.2
	c32.9,1.2,65.5-1.8,97.3-9c40-9.1,76.3-23,104.4-47.7c16.3-14.3,26.9-30.5,30.4-49.6c0.8-4.5,0-9.2,1.1-13.7
	c-12.1-1.8-24.4-3.1-36.9-4C3116.2,428,3115.8,429.5,3115.8,431.1z"/>
<image style="overflow:visible;" width="605" height="889" xlink:href="N:\개인\05-프로젝트\프로젝트1. 메타버스\노티드도넛자료\완료이미지\my_face2.png"  transform="matrix(1.1034 0 0 1.1034 2601.4739 -460.7769)">
</image>
<image style="overflow:visible;" width="294" height="401" xlink:href="N:\개인\05-프로젝트\프로젝트1. 메타버스\노티드도넛자료\완료이미지\my_hand.png"  transform="matrix(1.179 0 0 1.179 3102.1428 318.2193)">
</image>
</svg>
